<?xml version="1.0" standalone="no"?>
<!DOCTYPE svg PUBLIC "-//W3C//DTD SVG 20010904//EN"
 "http://www.w3.org/TR/2001/REC-SVG-20010904/DTD/svg10.dtd">
<svg version="1.0" xmlns="http://www.w3.org/2000/svg"
 width="236.000000pt" height="236.000000pt" viewBox="0 0 236.000000 236.000000"
 preserveAspectRatio="xMidYMid meet">

<g transform="translate(0.000000,236.000000) scale(0.100000,-0.100000)"
fill="#000000" stroke="none">
<path d="M0 1180 l0 -1180 1180 0 1180 0 0 1180 0 1180 -1180 0 -1180 0 0
-1180z m1376 1135 c474 -83 839 -438 940 -917 24 -114 24 -333 0 -448 -64
-301 -245 -572 -489 -734 -105 -69 -167 -100 -275 -136 -612 -205 -1272 126
-1471 739 -40 121 -55 217 -55 356 0 137 14 233 55 356 132 409 476 707 901
784 101 18 288 18 394 0z"/>
<path d="M1075 2219 c-286 -26 -564 -186 -745 -429 -62 -83 -137 -243 -167
-355 -23 -88 -26 -119 -26 -260 0 -142 3 -171 26 -260 31 -113 106 -274 166
-355 227 -304 574 -460 949 -429 353 30 677 250 837 569 207 413 129 897 -198
1221 -161 159 -397 275 -599 294 -127 12 -155 12 -243 4z m-215 -449 l0 -40
320 0 320 0 0 40 0 40 155 0 155 0 0 -160 0 -160 -40 0 -40 0 0 -315 0 -315
40 0 40 0 0 -160 0 -160 -155 0 -155 0 0 40 0 40 -320 0 -320 0 0 -40 0 -40
-155 0 -155 0 0 160 0 160 40 0 40 0 0 315 0 315 -40 0 -40 0 0 160 0 160 155
0 155 0 0 -40z"/>
<path d="M860 1530 l0 -40 -40 0 -40 0 0 -315 0 -315 40 0 40 0 0 -40 0 -40
320 0 320 0 0 40 0 40 40 0 40 0 0 315 0 315 -40 0 -40 0 0 40 0 40 -320 0
-320 0 0 -40z"/>
</g>
</svg>
